HIERARCHY
ROOT Hips
{
	OFFSET 0.000000 0.000000 0.000000
	CHANNELS 6 Xposition Yposition Zposition Xrotation Yrotation Zrotation
	JOINT LeftUpLeg_virtual
	{
		OFFSET 0.000000 0.000000 0.000000
		CHANNELS 3 Xrotation Yrotation Zrotation
		JOINT LeftUpLeg
		{
			OFFSET 13.026900 -6.336304 -1.092800
			CHANNELS 3 Xrotation Yrotation Zrotation
			JOINT LeftLeg
			{
				OFFSET 0.524474 -46.096886 9.782700
				CHANNELS 3 Xrotation Yrotation Zrotation
				JOINT LeftFoot
				{
					OFFSET -0.524474 -53.427422 -12.948200
					CHANNELS 3 Xrotation Yrotation Zrotation
					JOINT LeftToeBase
					{
						OFFSET 0.192200 -14.009700 16.364100
						CHANNELS 3 Xrotation Yrotation Zrotation
						JOINT LeftToe_End
						{
							OFFSET -1.784700 -0.561700 9.474800
							CHANNELS 3 Xrotation Yrotation Zrotation
							End Site
							{
								OFFSET 0 0 0
							}
						}
					}
				}
			}
		}
	}
	JOINT RightUpLeg_virtual
	{
		OFFSET 0.000000 0.000000 0.000000
		CHANNELS 3 Xrotation Yrotation Zrotation
		JOINT RightUpLeg
		{
			OFFSET -12.883000 -6.336304 -1.092800
			CHANNELS 3 Xrotation Yrotation Zrotation
			JOINT RightLeg
			{
				OFFSET -0.524587 -46.096825 9.782800
				CHANNELS 3 Xrotation Yrotation Zrotation
				JOINT RightFoot
				{
					OFFSET 0.524587 -53.427383 -12.948300
					CHANNELS 3 Xrotation Yrotation Zrotation
					JOINT RightToeBase
					{
						OFFSET -0.192200 -14.009700 16.364100
						CHANNELS 3 Xrotation Yrotation Zrotation
						JOINT RightToe_End
						{
							OFFSET 1.784700 -0.561700 9.474800
							CHANNELS 3 Xrotation Yrotation Zrotation
							End Site
							{
								OFFSET 0 0 0
							}
						}
					}
				}
			}
		}
	}
	JOINT Spine_virtual
	{
		OFFSET 0.000000 0.000000 0.000000
		CHANNELS 3 Xrotation Yrotation Zrotation
		JOINT Spine
		{
			OFFSET 0.072000 7.257294 -0.789700
			CHANNELS 3 Xrotation Yrotation Zrotation
			JOINT Spine1
			{
				OFFSET 0.000000 12.508769 -0.658067
				CHANNELS 3 Xrotation Yrotation Zrotation
				JOINT Spine1_split
				{
					OFFSET 0.000000 12.508769 -0.658067
					CHANNELS 3 Xrotation Yrotation Zrotation
					JOINT Spine2
					{
						OFFSET 0.000000 12.508769 -0.658067
						CHANNELS 3 Xrotation Yrotation Zrotation
						JOINT Neck_virtual
						{
							OFFSET 0.000000 0.000000 0.000000
							CHANNELS 3 Xrotation Yrotation Zrotation
							JOINT Neck
							{
								OFFSET 0.000000 14.033295 7.520400
								CHANNELS 3 Xrotation Yrotation Zrotation
								JOINT Head
								{
									OFFSET 0.000000 8.198502 5.703100
									CHANNELS 3 Xrotation Yrotation Zrotation
									JOINT HeadTop_End
									{
										OFFSET 0.000000 17.760803 13.332701
										CHANNELS 3 Xrotation Yrotation Zrotation
										End Site
										{
											OFFSET 0 0 0
										}
									}
								}
							}
						}
						JOINT LeftShoulder_virtual
						{
							OFFSET 0.000000 0.000000 0.000000
							CHANNELS 3 Xrotation Yrotation Zrotation
							JOINT LeftShoulder
							{
								OFFSET 6.292450 5.785301 -0.669000
								CHANNELS 3 Xrotation Yrotation Zrotation
								JOINT LeftShoulder_split
								{
									OFFSET 6.292450 5.785301 -0.669000
									CHANNELS 3 Xrotation Yrotation Zrotation
									JOINT LeftArm
									{
										OFFSET 13.907140 -6.093903 1.965100
										CHANNELS 3 Xrotation Yrotation Zrotation
										JOINT LeftForeArm
										{
											OFFSET 34.140198 0.000000 0.000000
											CHANNELS 3 Xrotation Yrotation Zrotation
											JOINT LeftHand
											{
												OFFSET 40.960209 0.000000 0.000000
												CHANNELS 3 Xrotation Yrotation Zrotation
												End Site
												{
													OFFSET 0 0 0
												}
											}
										}
									}
								}
							}
						}
						JOINT RightShoulder_virtual
						{
							OFFSET 0.000000 0.000000 0.000000
							CHANNELS 3 Xrotation Yrotation Zrotation
							JOINT RightShoulder
							{
								OFFSET -6.292450 5.785301 -0.669000
								CHANNELS 3 Xrotation Yrotation Zrotation
								JOINT RightShoulder_split
								{
									OFFSET -6.292450 5.785301 -0.669000
									CHANNELS 3 Xrotation Yrotation Zrotation
									JOINT RightArm
									{
										OFFSET -13.907140 -6.093903 1.965100
										CHANNELS 3 Xrotation Yrotation Zrotation
										JOINT RightForeArm
										{
											OFFSET -34.140198 0.000000 0.000000
											CHANNELS 3 Xrotation Yrotation Zrotation
											JOINT RightHand
											{
												OFFSET -40.960209 0.000000 0.000000
												CHANNELS 3 Xrotation Yrotation Zrotation
												End Site
												{
													OFFSET 0 0 0
												}
											}
										}
									}
								}
							}
						}
					}
				}
			}
		}
	}
}
MOTION
Frames: 4
Frame Time: 0.03333333
-1.753880 110.021782 18.687504 0.000000 0.000000 0.000000 172.258313 -60.644573 173.308250 -1.136653 15.415515 15.620279 21.374570 19.237060 1.226682 -8.014030 2.832700 -25.790668 -8.155114 2.586823 -0.518975 0.000000 0.000000 0.000000 171.626821 -60.243225 172.378661 -26.216336 -19.297065 -17.490320 23.278835 -10.574787 0.288817 3.857768 1.246474 6.859565 -4.502970 -7.298633 3.371108 0.000000 0.000000 0.000000 172.254912 -63.870964 172.295961 10.456925 0.100007 0.393975 -0.633980 -1.110988 2.435425 0.777592 -1.731767 0.197404 0.000000 0.000000 0.000000 -1.837377 -1.008299 2.780128 -3.838965 19.551700 4.346189 -0.957302 27.516011 -7.694814 0.000000 0.000000 0.000000 -2.185018 -0.735415 2.583380 1.402633 2.934055 -7.942179 2.170312 -2.847303 -2.551687 -0.989225 -10.938020 -57.011060 6.550031 -15.888205 -6.514148 0.000000 0.000000 0.000000 -2.181523 -1.046971 1.926556 2.088785 -1.018770 18.581412 -3.056520 -1.655571 -0.454311 16.441908 26.555917 45.832635 16.344849 24.167211 -5.325271 0.000000 0.000000 0.000000 
-1.751893 109.301994 16.514709 0.000000 0.000000 0.000000 173.041094 -56.925119 174.248863 2.446537 16.638561 15.777551 21.153538 21.173889 1.016605 -8.146373 3.737640 -27.150859 -8.766135 2.937947 -0.516648 0.000000 0.000000 0.000000 172.629343 -56.450052 173.541692 -28.410139 -20.390058 -16.777586 25.100732 -10.057582 0.197196 4.388103 2.547248 6.300550 -5.101066 -7.310198 3.243127 0.000000 0.000000 0.000000 173.508634 -59.759026 173.691246 10.686585 -0.590244 0.288051 -0.563614 -1.491037 2.917298 0.864399 -1.326908 0.127625 0.000000 0.000000 0.000000 -1.865730 -1.407750 3.219940 -3.939129 17.301824 3.305523 -1.008740 23.009058 -6.319429 0.000000 0.000000 0.000000 -2.152965 -1.120404 3.093366 1.415547 3.225745 -8.820190 1.877912 -2.988192 -2.120967 0.209640 -11.296741 -57.506054 5.721472 -15.752025 -6.423976 0.000000 0.000000 0.000000 -2.076343 -1.432724 2.400865 2.080415 -1.351356 17.898144 -3.179328 -1.687188 -0.470433 15.805809 27.889910 45.742211 16.059144 23.836180 -5.558274 0.000000 0.000000 0.000000 
-1.740550 108.563263 14.153530 0.000000 0.000000 0.000000 173.753155 -53.295515 175.027969 4.792354 17.246149 16.377627 23.235192 22.079920 0.486838 -7.623312 3.799986 -28.003668 -8.476597 3.511114 -1.231753 0.000000 0.000000 0.000000 173.565653 -52.675621 174.536933 -29.740983 -21.555338 -15.526883 26.511639 -9.390214 -0.037480 4.212514 3.495576 5.216541 -5.577123 -7.264447 3.062505 0.000000 0.000000 0.000000 174.577504 -55.699626 174.720241 11.127568 -1.375962 0.178353 -0.582052 -1.886950 3.261514 0.919594 -0.898938 0.012798 0.000000 0.000000 0.000000 -1.938367 -1.824720 3.523049 -3.949588 14.743998 2.544012 -0.906473 18.249326 -5.058367 0.000000 0.000000 0.000000 -2.163864 -1.523996 3.473174 1.431812 3.345635 -9.501075 1.750192 -3.149780 -1.535011 1.779654 -11.648059 -58.129452 4.902490 -16.026718 -6.505448 0.000000 0.000000 0.000000 -2.059570 -1.835262 2.772304 2.108829 -1.626149 17.384570 -3.501342 -1.563060 -0.523967 15.295165 29.092108 45.666027 15.639513 23.476427 -5.483401 0.000000 0.000000 0.000000 
-1.697693 107.971634 11.512569 0.000000 0.000000 0.000000 174.463918 -49.827972 175.693789 5.271616 16.707737 17.489353 27.256647 21.476760 -0.022876 -5.485738 2.555016 -28.775519 -8.586527 4.272601 -2.619365 0.000000 0.000000 0.000000 174.549883 -49.060931 175.432179 -30.074242 -22.576644 -13.731151 27.405979 -8.678756 -0.420057 3.390671 3.903175 3.564727 -5.685572 -7.189770 2.866343 0.000000 0.000000 0.000000 175.518786 -51.722881 175.452479 11.747201 -2.088674 0.122378 -0.720920 -2.220923 3.360599 0.952592 -0.343786 0.019167 0.000000 0.000000 0.000000 -2.044863 -2.172910 3.569452 -3.824692 11.949150 2.189545 -0.685807 13.391876 -3.947700 0.000000 0.000000 0.000000 -2.246718 -1.864670 3.600949 1.433314 3.321016 -9.865721 1.640946 -3.174394 -0.954053 3.461514 -11.770129 -58.824055 4.115249 -16.625119 -6.773775 0.000000 0.000000 0.000000 -2.141934 -2.174584 2.915483 2.140845 -1.821360 17.067268 -3.792549 -1.353376 -0.598895 14.831990 29.977345 45.683147 15.176045 23.173297 -5.211249 0.000000 0.000000 0.000000 
